<?xml version="1.0" encoding="utf-8"?>
<!-- Generator: Adobe Illustrator 25.2.1, SVG Export Plug-In . SVG Version: 6.00 Build 0)  -->
<svg version="1.1" id="Layer_1" xmlns="http://www.w3.org/2000/svg" xmlns:xlink="http://www.w3.org/1999/xlink" x="0px" y="0px"
	 viewBox="0 0 218.3 28.3" style="enable-background:new 0 0 218.3 28.3;" xml:space="preserve">
<style type="text/css">
	.st0{opacity:0;fill:#FFFFFF;}
	.st1{fill:none;stroke:#0061A0;stroke-width:1.0249;stroke-miterlimit:10;}
	.st2{fill:#0061A0;}
</style>
<rect class="st0" width="218.3" height="28.3"/>
<g>
	<line class="st1" x1="109.1" y1="0" x2="109.1" y2="28.3"/>
	<g>
		<path class="st2" d="M120.8,11.1l-3.2-9.6h0.9l2.3,7.4l2.5-7.7l2.6,7.7l2.2-7.3h0.9l-3.1,9.6l-2.6-7.8L120.8,11.1z"/>
		<path class="st2" d="M130,10.7V1h0.7v5c0.2-0.4,0.5-0.6,0.8-0.8c0.3-0.2,0.7-0.3,1.1-0.3c0.6,0,1.1,0.2,1.5,0.5
			c0.4,0.4,0.5,0.8,0.5,1.5v3.8H134V7.3c0-0.6-0.1-1-0.3-1.2c-0.2-0.3-0.6-0.4-1.1-0.4c-0.6,0-1,0.2-1.3,0.5
			c-0.3,0.4-0.4,0.9-0.4,1.7v2.9H130z"/>
		<path class="st2" d="M140.9,10.7v-1c-0.2,0.4-0.4,0.7-0.8,0.9c-0.3,0.2-0.7,0.3-1.2,0.3c-0.8,0-1.4-0.3-1.9-0.8
			c-0.5-0.6-0.7-1.3-0.7-2.2c0-0.9,0.2-1.6,0.7-2.2c0.5-0.6,1.1-0.8,1.9-0.8c0.5,0,0.9,0.1,1.2,0.3c0.3,0.2,0.6,0.5,0.8,0.9v-1h0.8
			v5.6H140.9z M137.1,8c0,0.7,0.2,1.3,0.5,1.7c0.3,0.4,0.8,0.6,1.4,0.6c0.6,0,1.1-0.2,1.4-0.6c0.3-0.4,0.5-1,0.5-1.8
			c0-0.7-0.2-1.2-0.5-1.6c-0.3-0.4-0.8-0.6-1.4-0.6c-0.6,0-1,0.2-1.4,0.6C137.3,6.7,137.1,7.3,137.1,8z"/>
		<path class="st2" d="M143.9,5.8h-1V5.2h1V2.9h0.8v2.3h1.1v0.7h-1.1v4.9h-0.8V5.8z"/>
		<path class="st2" d="M155,6.2c-0.3-0.2-0.5-0.3-0.8-0.4c-0.3-0.1-0.6-0.1-0.9-0.1c-0.7,0-1.2,0.2-1.7,0.7c-0.4,0.4-0.6,1-0.6,1.8
			c0,0.7,0.2,1.2,0.6,1.6c0.4,0.4,1,0.6,1.6,0.6c0.3,0,0.6-0.1,0.9-0.2c0.3-0.1,0.6-0.3,0.9-0.5v0.9c-0.3,0.2-0.6,0.3-0.9,0.3
			c-0.3,0.1-0.7,0.1-1.1,0.1c-0.9,0-1.6-0.3-2.1-0.8c-0.5-0.6-0.8-1.3-0.8-2.2c0-0.9,0.3-1.7,0.9-2.2c0.6-0.6,1.3-0.9,2.2-0.9
			c0.3,0,0.7,0,0.9,0.1c0.3,0.1,0.6,0.2,0.8,0.3L155,6.2z"/>
		<path class="st2" d="M157.4,10.7h-0.8V1h0.8V10.7z"/>
		<path class="st2" d="M162,11c-0.4,0-0.8-0.1-1.1-0.2c-0.4-0.2-0.7-0.4-1-0.7c-0.3-0.3-0.5-0.6-0.6-1C159.1,8.8,159,8.4,159,8
			c0-0.4,0.1-0.8,0.2-1.2c0.2-0.4,0.4-0.7,0.6-1c0.3-0.3,0.6-0.5,1-0.7C161.3,5,161.6,5,162,5c0.4,0,0.8,0.1,1.2,0.2
			c0.4,0.2,0.7,0.4,1,0.7c0.3,0.3,0.5,0.6,0.7,1c0.2,0.4,0.2,0.8,0.2,1.2c0,0.4-0.1,0.8-0.2,1.2c-0.2,0.4-0.4,0.7-0.7,1
			c-0.3,0.3-0.6,0.5-1,0.7C162.8,10.9,162.5,11,162,11z M162.1,10.3c0.6,0,1.1-0.2,1.6-0.7c0.4-0.4,0.6-1,0.6-1.6
			c0-0.7-0.2-1.2-0.6-1.6c-0.4-0.4-0.9-0.7-1.6-0.7c-0.6,0-1.1,0.2-1.6,0.7c-0.4,0.4-0.6,1-0.6,1.6c0,0.6,0.2,1.2,0.6,1.6
			C160.9,10,161.5,10.3,162.1,10.3z"/>
		<path class="st2" d="M166.9,5.8h-1V5.2h1V2.9h0.8v2.3h1.1v0.7h-1.1v4.9h-0.8V5.8z"/>
		<path class="st2" d="M169.9,10.7V1h0.7v5c0.2-0.4,0.5-0.6,0.8-0.8c0.3-0.2,0.7-0.3,1.1-0.3c0.6,0,1.1,0.2,1.5,0.5
			c0.4,0.4,0.5,0.8,0.5,1.5v3.8h-0.8V7.3c0-0.6-0.1-1-0.3-1.2c-0.2-0.3-0.6-0.4-1.1-0.4c-0.6,0-1,0.2-1.3,0.5
			c-0.3,0.4-0.4,0.9-0.4,1.7v2.9H169.9z"/>
		<path class="st2" d="M181.4,8H177c0,0.7,0.2,1.3,0.5,1.7c0.3,0.4,0.8,0.6,1.4,0.6c0.4,0,0.8-0.1,1.1-0.3c0.3-0.2,0.6-0.6,0.8-1
			l0.7,0.4c-0.3,0.6-0.6,1-1.1,1.2c-0.4,0.3-0.9,0.4-1.5,0.4c-0.8,0-1.5-0.3-2-0.8c-0.5-0.5-0.8-1.3-0.8-2.2c0-0.9,0.3-1.7,0.8-2.2
			c0.5-0.6,1.2-0.8,2-0.8c0.8,0,1.4,0.3,1.9,0.8c0.5,0.5,0.7,1.2,0.7,2.1V8z M180.5,7.3c0-0.5-0.2-0.9-0.5-1.2
			c-0.3-0.3-0.7-0.4-1.2-0.4c-0.5,0-0.9,0.1-1.2,0.4c-0.3,0.3-0.5,0.7-0.6,1.2H180.5z"/>
		<path class="st2" d="M182.4,9.8l0.7-0.4c0.1,0.3,0.3,0.5,0.5,0.7c0.2,0.2,0.5,0.2,0.8,0.2c0.3,0,0.6-0.1,0.8-0.2
			c0.2-0.2,0.3-0.4,0.3-0.7c0-0.4-0.4-0.8-1.1-1.1c-0.1,0-0.1-0.1-0.2-0.1c-0.6-0.2-1-0.5-1.2-0.7c-0.2-0.2-0.4-0.5-0.4-0.9
			c0-0.5,0.2-0.9,0.5-1.2c0.3-0.3,0.8-0.5,1.3-0.5c0.5,0,0.8,0.1,1.2,0.3c0.3,0.2,0.6,0.5,0.7,0.8l-0.7,0.4
			c-0.1-0.3-0.2-0.5-0.4-0.6c-0.2-0.1-0.5-0.2-0.8-0.2c-0.3,0-0.5,0.1-0.7,0.2c-0.2,0.2-0.3,0.4-0.3,0.6c0,0.2,0.1,0.4,0.3,0.6
			c0.2,0.2,0.5,0.3,1.1,0.5c0.6,0.2,1,0.4,1.2,0.7c0.2,0.3,0.3,0.6,0.3,1c0,0.5-0.2,0.9-0.5,1.2c-0.4,0.3-0.9,0.5-1.5,0.5
			c-0.5,0-0.9-0.1-1.2-0.3C182.8,10.5,182.5,10.1,182.4,9.8z"/>
		<path class="st2" d="M117.8,26l0.7-0.4c0.1,0.3,0.3,0.5,0.5,0.7c0.2,0.2,0.5,0.2,0.8,0.2c0.3,0,0.6-0.1,0.8-0.2
			c0.2-0.2,0.3-0.4,0.3-0.7c0-0.4-0.4-0.8-1.1-1.1c-0.1,0-0.1-0.1-0.2-0.1c-0.6-0.2-1-0.5-1.2-0.7c-0.2-0.2-0.4-0.5-0.4-0.9
			c0-0.5,0.2-0.9,0.5-1.2c0.3-0.3,0.8-0.5,1.3-0.5c0.5,0,0.8,0.1,1.2,0.3c0.3,0.2,0.6,0.5,0.7,0.8l-0.7,0.4
			c-0.1-0.3-0.2-0.5-0.4-0.6c-0.2-0.1-0.5-0.2-0.8-0.2c-0.3,0-0.5,0.1-0.7,0.2c-0.2,0.2-0.3,0.4-0.3,0.6c0,0.2,0.1,0.4,0.3,0.6
			c0.2,0.2,0.5,0.3,1.1,0.5c0.6,0.2,1,0.4,1.2,0.7c0.2,0.3,0.3,0.6,0.3,1c0,0.5-0.2,0.9-0.5,1.2c-0.4,0.3-0.9,0.5-1.5,0.5
			c-0.5,0-0.9-0.1-1.2-0.3C118.2,26.7,118,26.4,117.8,26z"/>
		<path class="st2" d="M123.4,27v-9.8h0.7v5c0.2-0.4,0.5-0.6,0.8-0.8c0.3-0.2,0.7-0.3,1.1-0.3c0.6,0,1.1,0.2,1.5,0.5
			c0.4,0.4,0.5,0.8,0.5,1.5V27h-0.8v-3.4c0-0.6-0.1-1-0.3-1.2c-0.2-0.3-0.6-0.4-1.1-0.4c-0.6,0-1,0.2-1.3,0.5
			c-0.3,0.4-0.4,0.9-0.4,1.7V27H123.4z"/>
		<path class="st2" d="M132.6,27.3c-0.4,0-0.8-0.1-1.1-0.2c-0.4-0.2-0.7-0.4-1-0.7c-0.3-0.3-0.5-0.6-0.6-1c-0.1-0.4-0.2-0.7-0.2-1.2
			c0-0.4,0.1-0.8,0.2-1.2c0.2-0.4,0.4-0.7,0.6-1c0.3-0.3,0.6-0.5,1-0.7c0.4-0.2,0.7-0.2,1.2-0.2c0.4,0,0.8,0.1,1.2,0.2
			c0.4,0.2,0.7,0.4,1,0.7c0.3,0.3,0.5,0.6,0.7,1c0.2,0.4,0.2,0.7,0.2,1.2c0,0.4-0.1,0.8-0.2,1.2c-0.2,0.4-0.4,0.7-0.7,1
			c-0.3,0.3-0.6,0.5-1,0.7C133.4,27.2,133.1,27.3,132.6,27.3z M132.7,26.5c0.6,0,1.1-0.2,1.6-0.7c0.4-0.4,0.6-1,0.6-1.6
			c0-0.7-0.2-1.2-0.6-1.6c-0.4-0.4-0.9-0.7-1.6-0.7c-0.6,0-1.1,0.2-1.6,0.7c-0.4,0.4-0.6,1-0.6,1.6c0,0.6,0.2,1.2,0.6,1.6
			C131.5,26.3,132.1,26.5,132.7,26.5z"/>
		<path class="st2" d="M138.1,21.4v2.8c0,0.8,0.1,1.4,0.4,1.8c0.2,0.3,0.7,0.5,1.2,0.5c0.6,0,1-0.2,1.2-0.5c0.2-0.4,0.4-0.9,0.4-1.8
			v-2.8h0.8v3.2c0,0.9-0.2,1.5-0.6,2c-0.4,0.4-1,0.7-1.8,0.7c-0.8,0-1.4-0.2-1.8-0.7c-0.4-0.4-0.6-1.1-0.6-2v-3.2H138.1z"/>
		<path class="st2" d="M144.9,27h-0.8v-9.8h0.8V27z"/>
		<path class="st2" d="M151.2,27v-1c-0.2,0.4-0.4,0.7-0.8,0.9c-0.3,0.2-0.7,0.3-1.2,0.3c-0.8,0-1.4-0.3-1.9-0.8
			c-0.5-0.6-0.7-1.3-0.7-2.2c0-0.9,0.2-1.6,0.7-2.2c0.5-0.6,1.1-0.8,1.9-0.8c0.5,0,0.9,0.1,1.2,0.3c0.3,0.2,0.6,0.5,0.8,0.9v-5.2
			h0.8V27H151.2z M147.5,24.3c0,0.7,0.2,1.3,0.5,1.7c0.3,0.4,0.8,0.6,1.4,0.6c0.6,0,1-0.2,1.4-0.6c0.3-0.4,0.5-1,0.5-1.8
			c0-0.7-0.2-1.2-0.5-1.6c-0.3-0.4-0.8-0.6-1.4-0.6s-1,0.2-1.4,0.6C147.6,23,147.5,23.5,147.5,24.3z"/>
		<path class="st2" d="M157.9,27v-9.2h0.8V27H157.9z"/>
		<path class="st2" d="M166,27.4l-2.2-5.9h0.8l1.5,4l1.8-4.3l1.8,4.3l1.5-4h0.8l-2.2,5.9l-1.8-4.4L166,27.4z"/>
		<path class="st2" d="M177.8,24.2h-4.4c0,0.7,0.2,1.3,0.5,1.7c0.3,0.4,0.8,0.6,1.4,0.6c0.4,0,0.8-0.1,1.1-0.3
			c0.3-0.2,0.6-0.6,0.8-1l0.7,0.4c-0.3,0.6-0.6,1-1,1.2c-0.4,0.3-0.9,0.4-1.5,0.4c-0.8,0-1.5-0.3-2-0.8c-0.5-0.5-0.8-1.3-0.8-2.2
			c0-0.9,0.2-1.7,0.8-2.2c0.5-0.6,1.2-0.8,2-0.8c0.8,0,1.4,0.3,1.9,0.8c0.5,0.5,0.7,1.2,0.7,2.1V24.2z M176.8,23.6
			c0-0.5-0.2-0.9-0.5-1.2c-0.3-0.3-0.7-0.4-1.2-0.4c-0.5,0-0.9,0.1-1.2,0.4c-0.3,0.3-0.5,0.7-0.6,1.2H176.8z"/>
		<path class="st2" d="M183.5,27v-1c-0.2,0.4-0.4,0.7-0.8,0.9c-0.3,0.2-0.7,0.3-1.2,0.3c-0.8,0-1.4-0.3-1.9-0.8
			c-0.5-0.6-0.7-1.3-0.7-2.2c0-0.9,0.2-1.6,0.7-2.2c0.5-0.6,1.1-0.8,1.9-0.8c0.5,0,0.9,0.1,1.2,0.3c0.3,0.2,0.6,0.5,0.8,0.9v-1h0.8
			V27H183.5z M179.7,24.3c0,0.7,0.2,1.3,0.5,1.7c0.3,0.4,0.8,0.6,1.4,0.6c0.6,0,1.1-0.2,1.4-0.6c0.3-0.4,0.5-1,0.5-1.8
			c0-0.7-0.2-1.2-0.5-1.6c-0.3-0.4-0.8-0.6-1.4-0.6c-0.6,0-1,0.2-1.4,0.6C179.9,23,179.7,23.5,179.7,24.3z"/>
		<path class="st2" d="M187.1,22.5c0.3-0.5,0.6-0.8,0.8-1c0.3-0.2,0.6-0.3,1-0.3c0.1,0,0.2,0,0.3,0c0.1,0,0.2,0,0.3,0.1l-0.3,0.7
			c-0.1,0-0.2,0-0.3-0.1c-0.1,0-0.2,0-0.3,0c-0.5,0-0.9,0.2-1.2,0.7c-0.3,0.4-0.5,1-0.5,1.6V27h-0.8v-5.6h0.8V22.5z"/>
		<path class="st2" d="M191.2,19.3h-0.8v-0.2c0-0.7,0.2-1.3,0.6-1.7c0.4-0.4,1-0.6,1.7-0.6c0.6,0,1.1,0.2,1.5,0.6
			c0.4,0.4,0.6,0.9,0.6,1.5c0,0.5-0.1,0.9-0.3,1.2c-0.2,0.3-0.6,0.7-1.2,1.1c-0.1,0.1-0.3,0.2-0.5,0.3c-0.8,0.5-1.3,1-1.3,1.5
			c0,0.3,0.1,0.5,0.3,0.7c0.2,0.2,0.4,0.3,0.8,0.3c0.4,0,0.7-0.1,0.9-0.3c0.2-0.2,0.3-0.5,0.3-0.8v-0.1h0.7v0.2c0,0.6-0.2,1-0.5,1.3
			c-0.3,0.3-0.8,0.5-1.5,0.5c-0.5,0-0.9-0.2-1.3-0.5c-0.3-0.3-0.5-0.7-0.5-1.2c0-0.4,0.1-0.7,0.3-1c0.2-0.3,0.6-0.6,1.1-0.9
			c0.1-0.1,0.3-0.2,0.5-0.3c0.9-0.6,1.4-1.2,1.4-1.7c0-0.4-0.1-0.7-0.4-1c-0.2-0.2-0.6-0.4-1-0.4c-0.5,0-0.8,0.1-1.1,0.4
			C191.4,18.3,191.2,18.7,191.2,19.3L191.2,19.3z M191.9,25.8c0-0.2,0.1-0.3,0.2-0.5c0.1-0.1,0.3-0.2,0.5-0.2c0.2,0,0.3,0.1,0.5,0.2
			c0.1,0.1,0.2,0.3,0.2,0.5c0,0.2-0.1,0.3-0.2,0.5c-0.1,0.1-0.3,0.2-0.5,0.2c-0.2,0-0.3-0.1-0.5-0.2C192,26.2,191.9,26,191.9,25.8z"
			/>
	</g>
	<g>
		<g>
			<path class="st2" d="M5.9,5.8c0,0.4-0.1,0.9-0.2,1.6c0,0.1,0,0.2,0,0.3l-0.6,3.8H2.6L0.2,0.3h2.9l0.6,5c0.1,0.4,0.1,0.8,0.1,1.2
				c0,0.4,0,0.7,0.1,1H4c0-0.4,0.1-1,0.2-1.8c0-0.1,0-0.1,0-0.2L5,0.3h2.1l0.8,5.3c0,0,0,0.1,0,0.2C7.9,6.4,8,7,8,7.4h0.1
				c0-0.3,0-0.7,0.1-1c-0.1-0.3,0-0.7,0-1.2l0.6-5h2.9L9.4,11.5H6.9L6.3,7.7c0-0.1,0-0.2,0-0.3C6.1,6.7,6.1,6.2,5.9,5.8L5.9,5.8z"/>
			<path class="st2" d="M12.3,11.5V0.3h3v11.3h-3V11.5z"/>
			<path class="st2" d="M16.9,11.5V0.3h2.9v4.8l1.8-4.8h3.3l-2.4,5.5l2.8,5.7h-3.5l-2-4.7v4.7H16.9z"/>
			<path class="st2" d="M25.6,11.5V0.3h3v11.3h-3V11.5z"/>
			<path class="st2" d="M41.4,11.5L41,7c0-0.3,0-0.7-0.1-1c0-0.3,0-0.7-0.1-1c0,0.3-0.1,0.7-0.1,1c-0.1,0.4-0.1,0.7-0.2,1.2
				l-0.9,4.3h-1.7L37,7.2c-0.1-0.4-0.2-0.8-0.2-1.2c-0.1-0.4-0.1-0.7-0.1-1c0,0.3,0,0.7-0.1,1c0,0.3,0,0.7-0.1,1l-0.4,4.5h-2.9
				l1.4-11.3h3l0.6,2.9c0,0.1,0,0.2,0.1,0.4c0.2,1.2,0.4,2.1,0.4,2.9l0,0c0-0.5,0.1-1,0.2-1.5c0.2-0.6,0.3-1.2,0.5-1.9L40,0.3h3
				l1.2,11.2H41.4z"/>
			<path class="st2" d="M45.2,6.4V0.3h2.9v6.1c0,0.7,0.1,1.2,0.2,1.5c0.1,0.3,0.3,0.4,0.6,0.4s0.5-0.1,0.6-0.4
				c0.1-0.3,0.2-0.8,0.2-1.5V0.3h2.9v6.1c0,0.8,0,1.5-0.1,2c-0.1,0.5-0.2,1-0.4,1.3c-0.3,0.7-0.8,1.2-1.3,1.6
				c-0.6,0.4-1.2,0.6-1.9,0.6s-1.4-0.2-1.9-0.6c-0.6-0.4-1-0.9-1.3-1.6c-0.2-0.3-0.3-0.8-0.4-1.3C45.2,7.8,45.2,7.2,45.2,6.4z"/>
			<path class="st2" d="M53.6,10.5l0.9-3.2c0.4,0.4,0.8,0.7,1.1,0.9s0.6,0.3,0.9,0.3c0.2,0,0.4-0.1,0.5-0.2c0.1,0,0.2-0.1,0.2-0.3
				c0-0.3-0.3-0.6-0.9-0.7c-0.2-0.1-0.3-0.1-0.4-0.1c-0.6-0.2-1.1-0.6-1.4-1.1c-0.3-0.5-0.5-1.2-0.5-2c0-1.2,0.3-2.2,0.9-3
				C55.6,0.4,56.4,0,57.4,0c0.5,0,0.9,0.1,1.4,0.3c0.4,0.1,0.9,0.4,1.3,0.7l-0.8,3c-0.3-0.3-0.6-0.5-0.8-0.7
				c-0.3-0.2-0.6-0.2-0.8-0.2s-0.4,0-0.5,0.1S57,3.4,57,3.6c0,0.3,0.4,0.6,1.2,0.8c0.1,0,0.2,0.1,0.3,0.1c0.6,0.2,1,0.5,1.3,1.1
				c0.3,0.5,0.5,1.2,0.5,2c0,1.2-0.3,2.3-1,3.1c-0.6,0.8-1.5,1.2-2.5,1.2c-0.5,0-1.1-0.1-1.6-0.3C54.7,11.3,54.1,11,53.6,10.5z"/>
			<path class="st2" d="M61.2,11.5V0.3h5.4v3.1H64v1.1h2.3v2.9h-2.2v1.2h2.6v3.1h-5.4L61.2,11.5L61.2,11.5z"/>
			<path class="st2" d="M67.8,6.4V0.3h2.9v6.1c0,0.7,0.1,1.2,0.2,1.5c0.1,0.3,0.3,0.4,0.6,0.4c0.3,0,0.5-0.1,0.6-0.4
				c0.1-0.3,0.2-0.8,0.2-1.5V0.3h2.9v6.1c0,0.8,0,1.5-0.1,2c-0.1,0.5-0.2,1-0.4,1.3c-0.3,0.7-0.8,1.2-1.3,1.6
				c-0.6,0.4-1.2,0.6-1.9,0.6c-0.7,0-1.4-0.2-1.9-0.6c-0.6-0.4-1-0.9-1.3-1.6c-0.2-0.3-0.3-0.8-0.4-1.3C67.8,7.8,67.8,7.2,67.8,6.4z
				"/>
			<path class="st2" d="M80.6,11.5V0.3H83c0.7,0,1.4,0.1,1.9,0.2s1,0.3,1.3,0.5c0.7,0.5,1.2,1.2,1.6,2s0.6,1.8,0.6,2.9
				s-0.2,2-0.6,2.9c-0.4,0.8-0.9,1.5-1.6,2c-0.3,0.2-0.8,0.4-1.3,0.5s-1.2,0.2-2.1,0.2H80.6z M83.5,8.1c0.7,0,1.1-0.2,1.4-0.5
				c0.3-0.4,0.5-0.9,0.5-1.6S85.3,4.7,85,4.4c-0.3-0.4-0.7-0.5-1.3-0.5h-0.1L83.5,8.1L83.5,8.1z"/>
			<path class="st2" d="M98,5.9c0,0.8-0.1,1.6-0.3,2.3c-0.2,0.7-0.5,1.3-0.9,1.9c-0.4,0.5-0.9,1-1.4,1.3s-1.1,0.4-1.7,0.4
				s-1.2-0.1-1.7-0.4c-0.5-0.3-1-0.7-1.4-1.3c-0.4-0.5-0.7-1.2-0.9-1.9c-0.2-0.7-0.3-1.5-0.3-2.3s0.1-1.6,0.3-2.3
				c0.2-0.7,0.5-1.3,0.9-1.9s0.9-1,1.4-1.3S93,0,93.6,0s1.2,0.1,1.7,0.4s1,0.7,1.4,1.3c0.4,0.5,0.7,1.2,0.9,1.9
				C97.9,4.3,98,5.1,98,5.9z M93.6,8c0.4,0,0.7-0.2,1-0.6C94.8,7,95,6.5,95,5.9s-0.1-1.2-0.4-1.6c-0.2-0.4-0.6-0.6-1-0.6
				s-0.7,0.2-1,0.6s-0.4,0.9-0.4,1.6c0,0.6,0.1,1.2,0.4,1.5C92.9,7.8,93.2,8,93.6,8z"/>
		</g>
		<g>
			<path class="st2" d="M33.3,28.1V16.7h3.2v11.4H33.3z"/>
			<path class="st2" d="M38.2,28.1V16.7H42c1.3,0,2.3,0.3,2.9,1c0.6,0.7,0.9,1.7,0.9,3.2c0,1.3-0.3,2.3-0.8,2.9
				c-0.6,0.6-1.4,0.9-2.6,0.9h-1v3.4C41.4,28.1,38.2,28.1,38.2,28.1z M41.3,19.9v1.9h0.5c0.3,0,0.5-0.1,0.7-0.2
				c0.2-0.2,0.2-0.4,0.2-0.7c0-0.3-0.1-0.5-0.2-0.7c-0.2-0.2-0.4-0.3-0.7-0.3C41.8,19.8,41.3,19.8,41.3,19.9z"/>
			<path class="st2" d="M46.9,28.1V16.7h3.2v11.4H46.9z"/>
			<path class="st2" d="M51.8,28.1V16.7h4c1.2,0,2,0.3,2.6,1s0.9,1.6,0.9,2.9c0,0.8-0.2,1.5-0.5,2s-0.7,0.8-1.2,0.9l2.3,4.6h-3.5
				l-1.5-3.8v3.8H51.8z M54.9,19.6v2.2h0.5c0.3,0,0.5-0.1,0.7-0.3c0.2-0.2,0.2-0.5,0.2-0.8c0-0.4-0.1-0.6-0.2-0.8
				c-0.2-0.2-0.4-0.3-0.7-0.3C55.4,19.6,54.9,19.6,54.9,19.6z"/>
			<path class="st2" d="M59.4,28.1l3.1-11.4H66l3.1,11.4h-3.4l-0.3-1.4H63l-0.3,1.4H59.4z M63.6,24h1.3l-0.3-1.3
				c-0.1-0.7-0.2-1.2-0.3-1.5c0-0.4-0.1-0.7-0.1-1l0,0c0,0.3,0,0.6-0.1,1c0,0.4-0.1,0.9-0.3,1.5L63.6,24z"/>
			<path class="st2" d="M69.6,28.1V16.7h3.1l2.7,6c0-0.3-0.1-0.6-0.1-0.9s0-0.7,0-1.3v-3.8h3v11.4h-3.1l-2.7-5.9
				c0,0.3,0.1,0.5,0.1,0.8s0,0.6,0,1v4.1C72.6,28.1,69.6,28.1,69.6,28.1z"/>
			<path class="st2" d="M85.6,24h-1.4v-2.7H89c0,0.2,0,0.4,0,0.5s0,0.2,0,0.3c0,0.7,0,1.3-0.1,1.8s-0.2,1-0.4,1.4
				c-0.4,1-1,1.7-1.7,2.2s-1.5,0.8-2.4,0.8c-0.7,0-1.3-0.1-1.8-0.4c-0.6-0.3-1.1-0.7-1.5-1.3c-0.4-0.6-0.8-1.2-1-1.9
				c-0.2-0.7-0.3-1.5-0.3-2.4s0.1-1.6,0.3-2.4c0.2-0.7,0.6-1.4,1-1.9c0.4-0.6,0.9-1,1.5-1.3s1.2-0.4,1.9-0.4c0.9,0,1.7,0.3,2.4,0.8
				c0.7,0.5,1.3,1.3,1.7,2.2l-2.8,1.4c-0.1-0.3-0.3-0.6-0.5-0.7c-0.2-0.2-0.4-0.2-0.7-0.2c-0.5,0-0.8,0.2-1.1,0.7
				c-0.3,0.5-0.4,1.1-0.4,1.9s0.1,1.4,0.4,1.9c0.3,0.4,0.7,0.7,1.2,0.7c0.3,0,0.6-0.1,0.7-0.2C85.4,24.6,85.5,24.3,85.6,24z"/>
			<path class="st2" d="M89.1,28.1l3.1-11.4h3.5l3.1,11.4h-3.4l-0.3-1.4h-2.4l-0.3,1.4C92.4,28.1,89.1,28.1,89.1,28.1z M93.2,24h1.3
				l-0.3-1.3c-0.1-0.7-0.2-1.2-0.3-1.5c0-0.4-0.1-0.7-0.1-1h-0.1c0,0.3,0,0.6-0.1,1c0,0.4-0.1,0.9-0.3,1.5L93.2,24z"/>
		</g>
	</g>
</g>
</svg>
